<svg width="52" height="49" viewBox="0 0 52 49" fill="none" xmlns="http://www.w3.org/2000/svg">
<g clip-path="url(#clip0_61_926)">
<path d="M26 14.5C20.475 14.5 16 18.975 16 24.5C15.9989 26.5993 16.6588 28.6456 17.8862 30.3487C19.1136 32.0517 20.8461 33.3251 22.838 33.988C23.338 34.075 23.525 33.775 23.525 33.512C23.525 33.275 23.512 32.488 23.512 31.65C21 32.113 20.35 31.038 20.15 30.475C20.037 30.187 19.55 29.3 19.125 29.062C18.775 28.875 18.275 28.412 19.112 28.4C19.9 28.387 20.462 29.125 20.65 29.425C21.55 30.937 22.988 30.512 23.562 30.25C23.65 29.6 23.912 29.163 24.2 28.913C21.975 28.663 19.65 27.8 19.65 23.975C19.65 22.887 20.037 21.988 20.675 21.287C20.575 21.037 20.225 20.012 20.775 18.637C20.775 18.637 21.612 18.375 23.525 19.663C24.3391 19.4371 25.1802 19.3233 26.025 19.325C26.875 19.325 27.725 19.437 28.525 19.662C30.437 18.362 31.275 18.638 31.275 18.638C31.825 20.013 31.475 21.038 31.375 21.288C32.012 21.988 32.4 22.875 32.4 23.975C32.4 27.813 30.063 28.663 27.838 28.913C28.2 29.225 28.513 29.825 28.513 30.763C28.513 32.1 28.5 33.175 28.5 33.513C28.5 33.775 28.688 34.087 29.188 33.987C31.173 33.3168 32.8979 32.041 34.1199 30.3392C35.3419 28.6373 35.9994 26.5951 36 24.5C36 18.975 31.525 14.5 26 14.5Z" fill="#607B96"/>
</g>
<defs>
<clipPath id="clip0_61_926">
<rect width="24" height="24" fill="white" transform="translate(14 12.5)"/>
</clipPath>
</defs>
</svg>
