<svg width="52" height="49" viewBox="0 0 52 49" fill="none" xmlns="http://www.w3.org/2000/svg">
<g opacity="0.4">
<g clip-path="url(#clip0_2802_550)">
<path d="M36.3832 18.156C35.6198 18.4937 34.8102 18.7155 33.9812 18.814C34.855 18.2914 35.509 17.469 35.8212 16.5C35.0012 16.988 34.1022 17.33 33.1652 17.515C32.5359 16.8416 31.7016 16.395 30.7922 16.2446C29.8828 16.0942 28.9492 16.2485 28.1365 16.6834C27.3238 17.1184 26.6776 17.8097 26.2984 18.6498C25.9191 19.4899 25.828 20.4318 26.0392 21.329C24.3764 21.2456 22.7496 20.8135 21.2645 20.0607C19.7795 19.3078 18.4694 18.251 17.4192 16.959C17.0475 17.5974 16.8522 18.3232 16.8532 19.062C16.8532 20.512 17.5912 21.793 18.7132 22.543C18.0493 22.5221 17.3999 22.3428 16.8192 22.02V22.072C16.8194 23.0377 17.1536 23.9736 17.7651 24.721C18.3766 25.4685 19.2277 25.9815 20.1742 26.173C19.5579 26.34 18.9116 26.3646 18.2842 26.245C18.5511 27.0762 19.0713 27.8032 19.7718 28.3241C20.4724 28.845 21.3184 29.1338 22.1912 29.15C21.3237 29.8313 20.3304 30.335 19.2681 30.6322C18.2058 30.9293 17.0954 31.0142 16.0002 30.882C17.9119 32.1114 20.1373 32.7641 22.4102 32.762C30.1032 32.762 34.3102 26.389 34.3102 20.862C34.3102 20.682 34.3052 20.5 34.2972 20.322C35.1161 19.7302 35.8228 18.997 36.3842 18.157L36.3832 18.156Z" fill="#607B96"/>
</g>
</g>
<defs>
<clipPath id="clip0_2802_550">
<rect width="24" height="24" fill="white" transform="translate(14 12.5)"/>
</clipPath>
</defs>
</svg>
